<?xml version="1.0" standalone="no"?>
<!DOCTYPE svg PUBLIC "-//W3C//DTD SVG 20010904//EN"
 "http://www.w3.org/TR/2001/REC-SVG-20010904/DTD/svg10.dtd">
<svg version="1.0" xmlns="http://www.w3.org/2000/svg"
 width="234.000000pt" height="244.000000pt" viewBox="0 0 234.000000 244.000000"
 preserveAspectRatio="xMidYMid meet">

<g transform="translate(0.000000,244.000000) scale(0.100000,-0.100000)"
fill="#DF4234" stroke="none">
<path d="M530 2357 c0 -2 -56 -246 -125 -542 -69 -296 -125 -543 -125 -548 0
-5 73 -7 183 -5 162 4 191 8 262 31 135 44 271 137 363 247 94 114 132 209
202 510 33 146 64 275 67 288 l5 22 -416 0 c-229 0 -416 -2 -416 -3z"/>
<path d="M1425 2348 c-3 -7 -32 -132 -66 -278 -55 -239 -61 -273 -57 -350 11
-229 182 -373 423 -357 157 10 290 73 409 193 77 77 124 148 158 240 19 48 23
80 23 174 0 104 -3 120 -26 170 -54 113 -151 186 -278 210 -82 15 -580 13
-586 -2z"/>
<path d="M1590 1264 c-85 -22 -228 -97 -302 -158 -37 -31 -90 -86 -118 -123
-92 -121 -113 -179 -195 -534 -42 -178 -78 -332 -81 -341 -5 -17 16 -18 344
-18 312 0 357 2 424 19 250 64 464 264 546 508 23 68 26 95 27 213 0 131 -1
137 -32 202 -55 117 -139 190 -264 229 -75 23 -265 25 -349 3z"/>
<path d="M255 1168 c-8 -24 -245 -1056 -245 -1067 0 -8 122 -11 413 -11 l412
0 64 277 c69 301 80 379 62 463 -34 163 -134 277 -289 329 -53 18 -86 21 -237
21 -132 0 -177 -3 -180 -12z"/>
</g>
</svg>
